<svg id="Layer_1" data-name="Layer 1" xmlns="http://www.w3.org/2000/svg" viewBox="0 0 892.08 191.79">
  <path d="M119.17,80.69l-21.7-12.52c-.96-.54-2.13-.54-3.09,0l-21.7,12.52c-.96.54-1.55,1.57-1.55,2.68v25.06c0,1.11.59,2.13,1.55,2.68l21.7,12.52c.48.27,1,.42,1.55.42s1.07-.15,1.55-.42l21.7-12.52c.96-.54,1.55-1.57,1.55-2.68v-25.06c0-1.11-.59-2.13-1.55-2.68ZM92.83,115.6l-15.51-8.97v-17.91l15.51,8.97v17.91ZM114.53,106.63l-15.51,8.97v-17.91l15.51-8.97s0,17.91,0,17.91ZM187.4,85.68c-5.81-5.81-15.28-5.81-21.09,0-2.11,2.11-3.47,4.72-4.03,7.46h-15.55c-.08-1.73-.27-3.45-.54-5.16-.21-1.36-1.28-2.4-2.63-2.59l-5.64-.77c-.98-3.66-2.42-7.17-4.33-10.45l3.45-4.54c.84-1.09.84-2.59.04-3.7-.9-1.21-1.84-2.38-2.82-3.51l12.6-12.6c1.53.84,3.28,1.3,5.14,1.3,5.96,0,10.81-4.85,10.81-10.81s-4.85-10.81-10.81-10.81-10.81,4.85-10.81,10.81c0,1.86.48,3.62,1.3,5.14l-12.56,12.56c-1.3-1.15-2.63-2.26-4.03-3.28-1.11-.82-2.61-.79-3.7.04l-4.54,3.45c-3.28-1.9-6.77-3.34-10.45-4.33l-.77-5.64c-.19-1.36-1.23-2.42-2.59-2.63-1.48-.23-2.99-.4-4.49-.5v-15.57c2.8-.59,5.37-1.96,7.46-4.06,2.82-2.82,4.37-6.56,4.37-10.56s-1.55-7.73-4.37-10.56h0c-2.82-2.82-6.56-4.37-10.56-4.37s-7.73,1.55-10.56,4.37c-2.82,2.82-4.37,6.56-4.37,10.56s1.55,7.73,4.37,10.56c2.07,2.07,4.66,3.45,7.46,4.06v15.53c-1.73.08-3.45.27-5.16.54-1.36.21-2.4,1.28-2.59,2.63l-.77,5.64c-3.66.98-7.17,2.42-10.45,4.33l-4.54-3.45c-1.09-.84-2.59-.84-3.7-.04-1.21.9-2.38,1.84-3.51,2.82l-12.6-12.6c.84-1.53,1.3-3.28,1.3-5.14,0-5.96-4.85-10.81-10.81-10.81s-10.81,4.85-10.81,10.81,4.85,10.81,10.81,10.81c1.86,0,3.62-.48,5.14-1.3l12.56,12.56c-1.15,1.3-2.26,2.63-3.28,4.03-.82,1.11-.79,2.61.04,3.7l3.45,4.54c-1.9,3.28-3.34,6.77-4.33,10.45l-5.64.77c-1.36.19-2.42,1.23-2.63,2.59-.23,1.48-.4,2.99-.5,4.49h-15.57c-.59-2.8-1.96-5.37-4.06-7.46-2.82-2.82-6.56-4.37-10.56-4.37s-7.73,1.55-10.56,4.37c-2.82,2.82-4.37,6.56-4.37,10.56s1.55,7.73,4.37,10.56c2.82,2.82,6.56,4.37,10.56,4.37s7.73-1.55,10.56-4.37c2.07-2.07,3.45-4.66,4.06-7.46h15.53c.08,1.73.27,3.45.54,5.16.21,1.36,1.28,2.4,2.63,2.59l5.64.77c.98,3.66,2.42,7.17,4.33,10.45l-3.45,4.54c-.84,1.09-.84,2.59-.04,3.7.9,1.21,1.84,2.38,2.82,3.51l-12.6,12.6c-1.53-.84-3.28-1.3-5.14-1.3-5.96,0-10.81,4.85-10.81,10.81s4.85,10.81,10.81,10.81,10.81-4.85,10.81-10.81c0-1.86-.48-3.62-1.3-5.14l12.56-12.56c1.3,1.15,2.63,2.26,4.03,3.28,1.11.82,2.61.79,3.7-.04l4.54-3.45c3.28,1.9,6.77,3.34,10.45,4.33l.77,5.64c.19,1.36,1.23,2.42,2.59,2.63,1.48.23,2.99.4,4.49.5v15.57c-2.8.59-5.37,1.96-7.46,4.06-2.82,2.82-4.37,6.56-4.37,10.56s1.55,7.73,4.37,10.56c2.82,2.82,6.56,4.37,10.56,4.37s7.73-1.55,10.56-4.37c2.82-2.82,4.37-6.56,4.37-10.56s-1.55-7.73-4.37-10.56c-2.07-2.07-4.66-3.45-7.46-4.06v-15.53c1.73-.08,3.45-.27,5.16-.54,1.36-.21,2.4-1.28,2.59-2.63l.77-5.64c3.66-.98,7.17-2.42,10.45-4.33l4.54,3.45c1.09.84,2.59.84,3.7.04,1.21-.9,2.38-1.84,3.51-2.82l12.6,12.6c-.84,1.53-1.3,3.28-1.3,5.14,0,5.96,4.85,10.81,10.81,10.81s10.81-4.85,10.81-10.81-4.85-10.81-10.81-10.81c-1.86,0-3.62.48-5.14,1.3l-12.56-12.56c1.15-1.3,2.26-2.63,3.28-4.03.82-1.11.79-2.61-.04-3.7l-3.45-4.54c1.9-3.28,3.34-6.77,4.33-10.45l5.64-.77c1.36-.19,2.42-1.23,2.63-2.59.23-1.48.4-2.99.5-4.49h15.59c.59,2.74,1.92,5.33,4.03,7.46,2.82,2.82,6.56,4.37,10.56,4.37s7.73-1.55,10.56-4.37c5.81-5.81,5.81-15.28,0-21.09l-.02-.02ZM140.37,100.59l-5.39.73c-1.3.17-2.34,1.15-2.61,2.42-.94,4.43-2.68,8.59-5.12,12.37-.71,1.09-.65,2.51.15,3.55l3.3,4.33c-1.99,2.45-4.2,4.66-6.65,6.65l-4.33-3.3c-1.05-.79-2.47-.84-3.55-.13-3.78,2.45-7.96,4.18-12.37,5.12-1.28.27-2.24,1.32-2.42,2.61l-.73,5.39c-3.11.33-6.27.33-9.39,0l-.73-5.39c-.17-1.3-1.15-2.34-2.42-2.61-4.43-.94-8.59-2.68-12.4-5.12-1.09-.71-2.51-.65-3.55.15l-4.33,3.3c-2.45-1.99-4.66-4.2-6.65-6.65l3.3-4.33c.79-1.05.84-2.47.13-3.55-2.45-3.78-4.18-7.96-5.12-12.37-.27-1.28-1.32-2.24-2.61-2.42l-5.39-.73c-.33-3.11-.33-6.27,0-9.39l5.39-.73c1.3-.17,2.34-1.15,2.61-2.42.94-4.43,2.68-8.59,5.12-12.37.71-1.09.65-2.51-.13-3.55l-3.3-4.33c1.99-2.45,4.2-4.66,6.65-6.65l4.33,3.3c1.05.79,2.47.84,3.55.13,3.78-2.45,7.96-4.18,12.37-5.12,1.28-.27,2.24-1.32,2.42-2.61l.73-5.39c3.11-.33,6.27-.33,9.39,0l.73,5.39c.17,1.3,1.15,2.34,2.42,2.61,4.43.94,8.59,2.68,12.37,5.12,1.09.71,2.51.65,3.55-.13l4.33-3.3c2.45,1.99,4.66,4.2,6.65,6.65l-3.3,4.33c-.79,1.05-.84,2.47-.13,3.55,2.45,3.78,4.18,7.96,5.12,12.37.27,1.28,1.32,2.24,2.61,2.42l5.39.73c.33,3.11.33,6.27,0,9.39v-.02Z"/>
  <g>
    <g>
      <path d="M238.85,76.34c-11.42,0-20.17-8.75-20.17-20.17v-5.64c0-11.42,8.75-20.17,20.17-20.17h9.11c11.42,0,20.17,8.75,20.17,20.17v5.64c0,11.42-8.75,20.17-20.17,20.17h-9.11ZM261.48,50.53c0-7.88-5.78-13.66-13.52-13.66h-9.11c-7.73,0-13.52,5.78-13.52,13.66v5.64c0,7.88,5.78,13.66,13.52,13.66h9.11c7.73,0,13.52-5.78,13.52-13.66v-5.64Z"/>
      <path d="M247.96,76.84h-9.11c-11.78,0-20.67-8.88-20.67-20.67v-5.64c0-11.78,8.88-20.67,20.67-20.67h9.11c11.78,0,20.67,8.88,20.67,20.67v5.64c0,11.78-8.88,20.67-20.67,20.67ZM238.85,30.87c-11.21,0-19.67,8.45-19.67,19.67v5.64c0,11.21,8.45,19.67,19.67,19.67h9.11c11.21,0,19.67-8.45,19.67-19.67v-5.64c0-11.21-8.45-19.67-19.67-19.67h-9.11ZM247.96,70.33h-9.11c-7.99,0-14.02-6.09-14.02-14.16v-5.64c0-8.07,6.03-14.16,14.02-14.16h9.11c7.99,0,14.02,6.09,14.02,14.16v5.64c0,8.07-6.03,14.16-14.02,14.16ZM238.85,37.37c-7.54,0-13.02,5.54-13.02,13.16v5.64c0,7.63,5.47,13.16,13.02,13.16h9.11c7.54,0,13.02-5.54,13.02-13.16v-5.64c0-7.63-5.47-13.16-13.02-13.16h-9.11Z"/>
    </g>
    <g>
      <path d="M329.34,41.72c0-3.18-2.6-5.78-5.78-5.78s-5.78,2.6-5.78,5.78v23.13c0,6.87-5.57,12.43-12.43,12.43s-12.43-5.57-12.43-12.43v-23.13c0-3.18-2.6-5.78-5.78-5.78s-5.78,2.6-5.78,5.78v31.88c0,1.81-1.52,3.33-3.32,3.33s-3.33-1.52-3.33-3.33v-31.73c0-6.87,5.57-12.43,12.43-12.43s12.43,5.57,12.43,12.43v23.13c0,3.18,2.6,5.78,5.78,5.78s5.78-2.6,5.78-5.78v-23.13c0-6.87,5.57-12.43,12.43-12.43s12.43,5.57,12.43,12.43v31.73c0,1.81-1.52,3.33-3.33,3.33s-3.32-1.52-3.32-3.33v-31.88Z"/>
      <path d="M305.35,77.78c-7.13,0-12.93-5.8-12.93-12.93v-23.13c0-2.91-2.37-5.28-5.28-5.28s-5.28,2.37-5.28,5.28v31.88c0,2.07-1.75,3.83-3.82,3.83s-3.83-1.75-3.83-3.83v-31.73c0-7.13,5.8-12.93,12.93-12.93s12.93,5.8,12.93,12.93v23.13c0,2.91,2.37,5.28,5.28,5.28s5.28-2.37,5.28-5.28v-23.13c0-7.13,5.8-12.93,12.93-12.93s12.93,5.8,12.93,12.93v31.73c0,2.07-1.75,3.83-3.83,3.83s-3.82-1.75-3.82-3.83v-31.88c0-2.91-2.37-5.28-5.28-5.28s-5.28,2.37-5.28,5.28v23.13c0,7.13-5.8,12.93-12.93,12.93ZM287.13,35.43c3.46,0,6.28,2.82,6.28,6.28v23.13c0,6.58,5.35,11.93,11.93,11.93s11.93-5.35,11.93-11.93v-23.13c0-3.46,2.82-6.28,6.28-6.28s6.28,2.82,6.28,6.28v31.88c0,1.53,1.29,2.83,2.82,2.83s2.83-1.29,2.83-2.83v-31.73c0-6.58-5.35-11.93-11.93-11.93s-11.93,5.35-11.93,11.93v23.13c0,3.46-2.82,6.28-6.28,6.28s-6.28-2.82-6.28-6.28v-23.13c0-6.58-5.35-11.93-11.93-11.93s-11.93,5.35-11.93,11.93v31.73c0,1.53,1.29,2.83,2.83,2.83s2.82-1.29,2.82-2.83v-31.88c0-3.46,2.82-6.28,6.28-6.28Z"/>
    </g>
    <g>
      <path d="M344.37,33.12c0-1.81,1.52-3.33,3.33-3.33s3.32,1.52,3.32,3.33v40.48c0,1.81-1.52,3.33-3.32,3.33s-3.33-1.52-3.33-3.33v-40.48Z"/>
      <path d="M347.7,77.42c-2.07,0-3.83-1.75-3.83-3.83v-40.48c0-2.07,1.75-3.83,3.83-3.83s3.82,1.75,3.82,3.83v40.48c0,2.07-1.75,3.83-3.82,3.83ZM347.7,30.29c-1.53,0-2.83,1.29-2.83,2.83v40.48c0,1.53,1.29,2.83,2.83,2.83s2.82-1.29,2.82-2.83v-40.48c0-1.53-1.29-2.83-2.82-2.83Z"/>
    </g>
    <g>
      <path d="M399.31,33.12c0-1.81,1.52-3.33,3.32-3.33s3.33,1.52,3.33,3.33v30.86c0,7.37-5.93,13.3-13.3,13.3s-13.3-5.93-13.3-13.3v-21.39c0-3.69-2.96-6.65-6.65-6.65s-6.65,2.96-6.65,6.65v31.01c0,1.81-1.52,3.33-3.32,3.33s-3.33-1.52-3.33-3.33v-30.86c0-7.37,5.93-13.3,13.3-13.3s13.3,5.93,13.3,13.3v21.39c0,3.69,2.96,6.65,6.65,6.65s6.65-2.96,6.65-6.65v-31.01Z"/>
      <path d="M392.66,77.78c-7.61,0-13.8-6.19-13.8-13.8v-21.39c0-3.39-2.76-6.15-6.15-6.15s-6.15,2.76-6.15,6.15v31.01c0,2.07-1.75,3.83-3.82,3.83s-3.83-1.75-3.83-3.83v-30.86c0-7.61,6.19-13.8,13.8-13.8s13.8,6.19,13.8,13.8v21.39c0,3.39,2.76,6.15,6.15,6.15s6.15-2.76,6.15-6.15v-31.01c0-2.07,1.75-3.83,3.82-3.83s3.83,1.75,3.83,3.83v30.86c0,7.61-6.19,13.8-13.8,13.8ZM372.71,35.43c3.94,0,7.15,3.21,7.15,7.15v21.39c0,7.06,5.74,12.8,12.8,12.8s12.8-5.74,12.8-12.8v-30.86c0-1.53-1.29-2.83-2.83-2.83s-2.82,1.29-2.82,2.83v31.01c0,3.94-3.21,7.15-7.15,7.15s-7.15-3.21-7.15-7.15v-21.39c0-7.06-5.74-12.8-12.8-12.8s-12.8,5.74-12.8,12.8v30.86c0,1.53,1.29,2.83,2.83,2.83s2.82-1.29,2.82-2.83v-31.01c0-3.94,3.21-7.15,7.15-7.15Z"/>
    </g>
    <g>
      <path d="M414.34,33.12c0-1.81,1.52-3.33,3.33-3.33s3.32,1.52,3.32,3.33v40.48c0,1.81-1.52,3.33-3.32,3.33s-3.33-1.52-3.33-3.33v-40.48Z"/>
      <path d="M417.66,77.42c-2.07,0-3.83-1.75-3.83-3.83v-40.48c0-2.07,1.75-3.83,3.83-3.83s3.82,1.75,3.82,3.83v40.48c0,2.07-1.75,3.83-3.82,3.83ZM417.66,30.29c-1.53,0-2.83,1.29-2.83,2.83v40.48c0,1.53,1.29,2.83,2.83,2.83s2.82-1.29,2.82-2.83v-40.48c0-1.53-1.29-2.83-2.82-2.83Z"/>
    </g>
    <g>
      <path d="M463.63,76.34c-11.42,0-20.17-8.75-20.17-20.17v-5.64c0-11.42,8.75-20.17,20.17-20.17h17.42c1.73,0,3.18,1.45,3.18,3.18s-1.45,3.32-3.18,3.32h-17.42c-7.73,0-13.52,5.78-13.52,13.66v5.64c0,7.88,5.78,13.66,13.52,13.66h17.42c1.73,0,3.18,1.59,3.18,3.32s-1.45,3.18-3.18,3.18h-17.42Z"/>
      <path d="M481.05,76.84h-17.42c-11.78,0-20.67-8.88-20.67-20.67v-5.64c0-11.78,8.88-20.67,20.67-20.67h17.42c1.99,0,3.68,1.69,3.68,3.68s-1.72,3.82-3.68,3.82h-17.42c-7.54,0-13.02,5.54-13.02,13.16v5.64c0,7.63,5.47,13.16,13.02,13.16h17.42c1.96,0,3.68,1.79,3.68,3.82s-1.69,3.68-3.68,3.68ZM463.63,30.87c-11.21,0-19.67,8.45-19.67,19.67v5.64c0,11.21,8.45,19.67,19.67,19.67h17.42c1.45,0,2.68-1.23,2.68-2.68s-1.25-2.82-2.68-2.82h-17.42c-7.99,0-14.02-6.09-14.02-14.16v-5.64c0-8.07,6.03-14.16,14.02-14.16h17.42c1.43,0,2.68-1.32,2.68-2.82s-1.23-2.68-2.68-2.68h-17.42Z"/>
    </g>
    <g>
      <path d="M524.92,56.53h-27.47v17.06c0,1.81-1.52,3.33-3.32,3.33s-3.33-1.52-3.33-3.33v-40.48c0-1.81,1.52-3.33,3.33-3.33s3.32,1.52,3.32,3.33v17.06h27.47v-17.06c0-1.81,1.52-3.33,3.33-3.33s3.33,1.52,3.33,3.33v40.48c0,1.81-1.52,3.33-3.33,3.33s-3.33-1.52-3.33-3.33v-17.06Z"/>
      <path d="M528.24,77.42c-2.07,0-3.83-1.75-3.83-3.83v-16.56h-26.47v16.56c0,2.07-1.75,3.83-3.82,3.83s-3.83-1.75-3.83-3.83v-40.48c0-2.07,1.75-3.83,3.83-3.83s3.82,1.75,3.82,3.83v16.56h26.47v-16.56c0-2.07,1.75-3.83,3.83-3.83s3.83,1.75,3.83,3.83v40.48c0,2.07-1.75,3.83-3.83,3.83ZM496.95,56.03h28.47v17.56c0,1.53,1.29,2.83,2.83,2.83s2.83-1.29,2.83-2.83v-40.48c0-1.53-1.29-2.83-2.83-2.83s-2.83,1.29-2.83,2.83v17.56h-28.47v-17.56c0-1.53-1.29-2.83-2.82-2.83s-2.83,1.29-2.83,2.83v40.48c0,1.53,1.29,2.83,2.83,2.83s2.82-1.29,2.82-2.83v-17.56Z"/>
    </g>
    <g>
      <path d="M574.21,58.49h-21.39c-1.74,0-3.18-1.45-3.18-3.18s1.45-3.18,3.18-3.18h21.39v-4.19c0-6.51-4.99-11.2-10.99-11.2h-5.78c-6,0-10.99,4.7-10.99,11.2v25.66c0,1.81-1.52,3.33-3.32,3.33s-3.33-1.52-3.33-3.33v-25.59c0-10.12,7.81-17.64,17.64-17.64h5.78c9.83,0,17.64,7.52,17.64,17.64v25.59c0,1.81-1.52,3.33-3.33,3.33s-3.33-1.52-3.33-3.33v-15.11Z"/>
      <path d="M577.53,77.42c-2.07,0-3.83-1.75-3.83-3.83v-14.61h-20.89c-2,0-3.68-1.69-3.68-3.68s1.69-3.68,3.68-3.68h20.89v-3.69c0-6-4.61-10.7-10.49-10.7h-5.78c-5.88,0-10.49,4.7-10.49,10.7v25.66c0,2.07-1.75,3.83-3.82,3.83s-3.83-1.75-3.83-3.83v-25.59c0-10.17,7.97-18.14,18.14-18.14h5.78c10.17,0,18.14,7.97,18.14,18.14v25.59c0,2.07-1.75,3.83-3.83,3.83ZM552.81,52.62c-1.45,0-2.68,1.23-2.68,2.68s1.23,2.68,2.68,2.68h21.89v15.61c0,1.53,1.29,2.83,2.83,2.83s2.83-1.29,2.83-2.83v-25.59c0-9.77-7.37-17.14-17.14-17.14h-5.78c-9.77,0-17.14,7.37-17.14,17.14v25.59c0,1.53,1.29,2.83,2.83,2.83s2.82-1.29,2.82-2.83v-25.66c0-6.56,5.05-11.7,11.49-11.7h5.78c6.44,0,11.49,5.14,11.49,11.7v4.69h-21.89Z"/>
    </g>
    <g>
      <path d="M589.1,33.12c0-1.81,1.52-3.33,3.33-3.33s3.32,1.52,3.32,3.33v40.48c0,1.81-1.52,3.33-3.32,3.33s-3.33-1.52-3.33-3.33v-40.48Z"/>
      <path d="M592.42,77.42c-2.07,0-3.83-1.75-3.83-3.83v-40.48c0-2.07,1.75-3.83,3.83-3.83s3.82,1.75,3.82,3.83v40.48c0,2.07-1.75,3.83-3.82,3.83ZM592.42,30.29c-1.53,0-2.83,1.29-2.83,2.83v40.48c0,1.53,1.29,2.83,2.83,2.83s2.82-1.29,2.82-2.83v-40.48c0-1.53-1.29-2.83-2.82-2.83Z"/>
    </g>
    <g>
      <path d="M644.03,33.12c0-1.81,1.52-3.33,3.32-3.33s3.33,1.52,3.33,3.33v30.86c0,7.37-5.93,13.3-13.3,13.3s-13.3-5.93-13.3-13.3v-21.39c0-3.69-2.96-6.65-6.65-6.65s-6.65,2.96-6.65,6.65v31.01c0,1.81-1.52,3.33-3.32,3.33s-3.33-1.52-3.33-3.33v-30.86c0-7.37,5.93-13.3,13.3-13.3s13.3,5.93,13.3,13.3v21.39c0,3.69,2.96,6.65,6.65,6.65s6.65-2.96,6.65-6.65v-31.01Z"/>
      <path d="M637.38,77.78c-7.61,0-13.8-6.19-13.8-13.8v-21.39c0-3.39-2.76-6.15-6.15-6.15s-6.15,2.76-6.15,6.15v31.01c0,2.07-1.75,3.83-3.82,3.83s-3.83-1.75-3.83-3.83v-30.86c0-7.61,6.19-13.8,13.8-13.8s13.8,6.19,13.8,13.8v21.39c0,3.39,2.76,6.15,6.15,6.15s6.15-2.76,6.15-6.15v-31.01c0-2.07,1.75-3.83,3.82-3.83s3.83,1.75,3.83,3.83v30.86c0,7.61-6.19,13.8-13.8,13.8ZM617.43,35.43c3.94,0,7.15,3.21,7.15,7.15v21.39c0,7.06,5.74,12.8,12.8,12.8s12.8-5.74,12.8-12.8v-30.86c0-1.53-1.29-2.83-2.83-2.83s-2.82,1.29-2.82,2.83v31.01c0,3.94-3.21,7.15-7.15,7.15s-7.15-3.21-7.15-7.15v-21.39c0-7.06-5.74-12.8-12.8-12.8s-12.8,5.74-12.8,12.8v30.86c0,1.53,1.29,2.83,2.83,2.83s2.82-1.29,2.82-2.83v-31.01c0-3.94,3.21-7.15,7.15-7.15Z"/>
    </g>
    <g>
      <path d="M223.89,156.65c-1.81,0-3.4-1.52-3.4-3.4v-39.83c0-1.81,1.52-3.33,3.33-3.33s3.32,1.52,3.32,3.33v36.72h24.21c1.81,0,3.25,1.45,3.25,3.25s-1.45,3.25-3.25,3.25h-27.47Z"/>
      <path d="M251.36,157.15h-27.47c-2.11,0-3.9-1.79-3.9-3.9v-39.83c0-2.07,1.75-3.83,3.83-3.83s3.82,1.75,3.82,3.83v36.22h23.71c2.07,0,3.75,1.68,3.75,3.75s-1.68,3.75-3.75,3.75ZM223.82,110.6c-1.53,0-2.83,1.29-2.83,2.83v39.83c0,1.57,1.33,2.9,2.9,2.9h27.47c1.54,0,2.75-1.21,2.75-2.75s-1.21-2.75-2.75-2.75h-24.71v-37.22c0-1.53-1.29-2.83-2.82-2.83Z"/>
    </g>
    <g>
      <path d="M275.35,156.65c-11.42,0-20.17-8.75-20.17-20.17v-5.64c0-11.42,8.75-20.17,20.17-20.17h9.11c11.42,0,20.17,8.75,20.17,20.17v5.64c0,11.42-8.75,20.17-20.17,20.17h-9.11ZM297.98,130.84c0-7.88-5.78-13.66-13.52-13.66h-9.11c-7.73,0-13.52,5.78-13.52,13.66v5.64c0,7.88,5.78,13.66,13.52,13.66h9.11c7.73,0,13.52-5.78,13.52-13.66v-5.64Z"/>
      <path d="M284.46,157.15h-9.11c-11.78,0-20.67-8.88-20.67-20.67v-5.64c0-11.78,8.88-20.67,20.67-20.67h9.11c11.78,0,20.67,8.88,20.67,20.67v5.64c0,11.78-8.88,20.67-20.67,20.67ZM275.35,111.17c-11.21,0-19.67,8.45-19.67,19.67v5.64c0,11.21,8.45,19.67,19.67,19.67h9.11c11.21,0,19.67-8.45,19.67-19.67v-5.64c0-11.21-8.45-19.67-19.67-19.67h-9.11ZM284.46,150.64h-9.11c-7.99,0-14.02-6.09-14.02-14.16v-5.64c0-8.07,6.03-14.16,14.02-14.16h9.11c7.99,0,14.02,6.09,14.02,14.16v5.64c0,8.07-6.03,14.16-14.02,14.16ZM275.35,117.68c-7.54,0-13.02,5.54-13.02,13.16v5.64c0,7.63,5.47,13.16,13.02,13.16h9.11c7.54,0,13.02-5.54,13.02-13.16v-5.64c0-7.63-5.47-13.16-13.02-13.16h-9.11Z"/>
    </g>
    <g>
      <path d="M329.05,156.07c-.29.36-.58.58-1.01.79l-.43.14c-.36.14-.72.22-1.08.22s-.79-.07-1.08-.22c-.07,0-.14,0-.22-.07-.51-.22-.94-.43-1.23-.87l-.22-.22c-.36-.51-.58-1.23-.58-1.95v-15.54l-17.71-22.84c-1.16-1.45-.94-3.47.51-4.7,1.52-1.16,3.54-.87,4.7.58l15.76,20.67,15.9-20.75c1.16-1.45,3.18-1.73,4.7-.58,1.45,1.23,1.66,3.25.51,4.7l-17.71,22.84v15.61c0,.36-.07.72-.22,1.08-.07.22-.14.43-.29.65l-.29.43Z"/>
      <path d="M326.52,157.72c-.43,0-.87-.08-1.2-.22-.1-.01-.23-.04-.36-.14-.51-.22-1.03-.49-1.38-1.02l-.15-.14c-.48-.66-.72-1.48-.72-2.31v-15.37l-17.6-22.71c-1.33-1.66-1.08-3.98.58-5.39,1.74-1.33,4.06-1.04,5.41.65l15.37,20.16,15.5-20.23c1.36-1.7,3.68-1.98,5.4-.67,1.68,1.43,1.93,3.74.59,5.41l-17.6,22.7v15.44c0,.42-.08.85-.25,1.27-.07.21-.16.47-.34.74l-.32.47c-.32.4-.67.67-1.18.93l-.5.17c-.39.16-.82.24-1.24.24ZM325.5,156.51l.16.05c.38.19,1.13.23,1.76-.02l.46-.16c.31-.16.54-.34.77-.62l.28-.41c.11-.16.16-.33.23-.53.13-.33.19-.63.19-.93v-15.78l17.81-22.98c.99-1.24.8-2.96-.43-4.01-1.26-.96-2.98-.75-3.98.51l-16.29,21.26-16.15-21.19c-1-1.25-2.72-1.46-4-.48-1.22,1.03-1.41,2.76-.42,3.99l17.82,22.98v15.71c0,.62.18,1.24.49,1.66l.16.15c.26.37.57.55,1.07.76l.08.04Z"/>
    </g>
    <g>
      <path d="M384.49,138.79h-21.39c-1.74,0-3.18-1.45-3.18-3.18s1.45-3.18,3.18-3.18h21.39v-4.19c0-6.51-4.99-11.2-10.99-11.2h-5.78c-6,0-10.99,4.7-10.99,11.2v25.66c0,1.81-1.52,3.33-3.32,3.33s-3.33-1.52-3.33-3.33v-25.59c0-10.12,7.81-17.64,17.64-17.64h5.78c9.83,0,17.64,7.52,17.64,17.64v25.59c0,1.81-1.52,3.33-3.33,3.33s-3.33-1.52-3.33-3.33v-15.11Z"/>
      <path d="M387.82,157.72c-2.07,0-3.83-1.75-3.83-3.83v-14.61h-20.89c-2,0-3.68-1.69-3.68-3.68s1.69-3.68,3.68-3.68h20.89v-3.69c0-6-4.61-10.7-10.49-10.7h-5.78c-5.88,0-10.49,4.7-10.49,10.7v25.66c0,2.07-1.75,3.83-3.82,3.83s-3.83-1.75-3.83-3.83v-25.59c0-10.17,7.97-18.14,18.14-18.14h5.78c10.17,0,18.14,7.97,18.14,18.14v25.59c0,2.07-1.75,3.83-3.83,3.83ZM363.1,132.93c-1.45,0-2.68,1.23-2.68,2.68s1.23,2.68,2.68,2.68h21.89v15.61c0,1.53,1.29,2.83,2.83,2.83s2.83-1.29,2.83-2.83v-25.59c0-9.77-7.37-17.14-17.14-17.14h-5.78c-9.77,0-17.14,7.37-17.14,17.14v25.59c0,1.53,1.29,2.83,2.83,2.83s2.82-1.29,2.82-2.83v-25.66c0-6.56,5.05-11.7,11.49-11.7h5.78c6.44,0,11.49,5.14,11.49,11.7v4.69h-21.89Z"/>
    </g>
    <g>
      <path d="M402.78,156.65c-1.81,0-3.4-1.52-3.4-3.4v-39.83c0-1.81,1.52-3.33,3.33-3.33s3.32,1.52,3.32,3.33v36.72h24.21c1.81,0,3.25,1.45,3.25,3.25s-1.45,3.25-3.25,3.25h-27.47Z"/>
      <path d="M430.24,157.15h-27.47c-2.11,0-3.9-1.79-3.9-3.9v-39.83c0-2.07,1.75-3.83,3.83-3.83s3.82,1.75,3.82,3.83v36.22h23.71c2.07,0,3.75,1.68,3.75,3.75s-1.68,3.75-3.75,3.75ZM402.7,110.6c-1.53,0-2.83,1.29-2.83,2.83v39.83c0,1.57,1.33,2.9,2.9,2.9h27.47c1.54,0,2.75-1.21,2.75-2.75s-1.21-2.75-2.75-2.75h-24.71v-37.22c0-1.53-1.29-2.83-2.82-2.83Z"/>
    </g>
    <g>
      <path d="M444.26,117.18h-16.05c-1.81,0-3.25-1.45-3.25-3.25s1.45-3.25,3.25-3.25h38.74c1.81,0,3.25,1.45,3.25,3.25s-1.45,3.25-3.25,3.25h-16.05v36.72c0,1.81-1.52,3.33-3.33,3.33s-3.33-1.52-3.33-3.33v-36.72Z"/>
      <path d="M447.59,157.72c-2.07,0-3.83-1.75-3.83-3.83v-36.22h-15.55c-2.07,0-3.75-1.68-3.75-3.75s1.68-3.75,3.75-3.75h38.74c2.07,0,3.75,1.68,3.75,3.75s-1.68,3.75-3.75,3.75h-15.55v36.22c0,2.07-1.75,3.83-3.83,3.83ZM428.22,111.17c-1.54,0-2.75,1.21-2.75,2.75s1.21,2.75,2.75,2.75h16.55v37.22c0,1.53,1.29,2.83,2.83,2.83s2.83-1.29,2.83-2.83v-37.22h16.55c1.54,0,2.75-1.21,2.75-2.75s-1.21-2.75-2.75-2.75h-38.74Z"/>
    </g>
    <g>
      <path d="M496.73,156.07c-.29.36-.58.58-1.01.79l-.43.14c-.36.14-.72.22-1.08.22s-.79-.07-1.08-.22c-.07,0-.14,0-.22-.07-.51-.22-.94-.43-1.23-.87l-.22-.22c-.36-.51-.58-1.23-.58-1.95v-15.54l-17.71-22.84c-1.16-1.45-.94-3.47.51-4.7,1.52-1.16,3.54-.87,4.7.58l15.76,20.67,15.9-20.75c1.16-1.45,3.18-1.73,4.7-.58,1.45,1.23,1.66,3.25.51,4.7l-17.71,22.84v15.61c0,.36-.07.72-.22,1.08-.07.22-.14.43-.29.65l-.29.43Z"/>
      <path d="M494.2,157.72c-.43,0-.87-.08-1.2-.22-.1-.01-.23-.04-.36-.14-.51-.22-1.03-.49-1.38-1.02l-.15-.14c-.48-.66-.72-1.48-.72-2.31v-15.37l-17.6-22.71c-1.33-1.66-1.08-3.98.58-5.39,1.74-1.33,4.06-1.04,5.41.65l15.37,20.16,15.5-20.23c1.36-1.7,3.68-1.98,5.4-.67,1.68,1.43,1.93,3.74.59,5.41l-17.6,22.7v15.44c0,.42-.08.85-.25,1.27-.07.21-.16.47-.34.74l-.32.47c-.32.4-.67.67-1.18.93l-.5.17c-.39.16-.82.24-1.24.24ZM493.18,156.51l.16.05c.38.19,1.13.23,1.76-.02l.46-.16c.31-.16.54-.34.77-.62l.28-.41c.11-.16.16-.33.23-.53.13-.33.19-.63.19-.93v-15.78l17.81-22.98c.99-1.24.8-2.96-.43-4.01-1.26-.96-2.98-.75-3.98.51l-16.29,21.26-16.15-21.19c-1-1.25-2.72-1.46-4-.48-1.22,1.03-1.41,2.76-.42,3.99l17.82,22.98v15.71c0,.62.18,1.24.49,1.66l.16.15c.26.37.57.55,1.07.76l.08.04Z"/>
    </g>
    <g>
      <path d="M540.46,141.18v12.72c0,1.81-1.52,3.33-3.32,3.33s-3.33-1.52-3.33-3.33v-39.83c0-1.88,1.52-3.4,3.4-3.4h22.55c8.17,0,14.31,6,14.31,14.24v2.02c0,8.24-6.14,14.24-14.31,14.24h-19.3ZM567.42,124.91c0-4.34-2.89-7.73-7.81-7.73h-19.15v17.49h19.15c4.92,0,7.81-3.4,7.81-7.73v-2.02Z"/>
      <path d="M537.14,157.72c-2.07,0-3.83-1.75-3.83-3.83v-39.83c0-2.15,1.75-3.9,3.9-3.9h22.55c8.44,0,14.81,6.34,14.81,14.74v2.02c0,8.4-6.37,14.74-14.81,14.74h-18.8v12.22c0,2.07-1.75,3.83-3.82,3.83ZM537.21,111.17c-1.6,0-2.9,1.3-2.9,2.9v39.83c0,1.53,1.29,2.83,2.83,2.83s2.82-1.29,2.82-2.83v-13.22h19.8c8,0,13.81-5.78,13.81-13.74v-2.02c0-7.96-5.81-13.74-13.81-13.74h-22.55ZM559.61,135.17h-19.65v-18.49h19.65c4.89,0,8.31,3.39,8.31,8.23v2.02c0,4.85-3.42,8.23-8.31,8.23ZM540.96,134.17h18.65c4.37,0,7.31-2.91,7.31-7.23v-2.02c0-4.33-2.94-7.23-7.31-7.23h-18.65v16.49Z"/>
    </g>
    <g>
      <path d="M595.39,137.64c-2.6-2.46-.87-6,2.1-6h9.18c4.84,0,7.81-2.96,7.81-7.23s-2.96-7.23-7.81-7.23h-19.95v36.72c0,1.81-1.52,3.25-3.32,3.25s-3.33-1.45-3.33-3.25v-39.83c0-1.81,1.52-3.4,3.4-3.4h23.13c9.18,0,14.82,5.64,14.82,13.73s-5.64,13.66-14.82,13.66h-1.23l14.09,13.37c1.3,1.3,1.37,3.4.07,4.7-1.23,1.3-3.32,1.37-4.63.14l-19.52-18.65Z"/>
      <path d="M617.14,157.67c-.93,0-1.86-.34-2.58-1.02l-19.52-18.65c-1.34-1.26-1.77-2.93-1.16-4.46.58-1.46,2-2.4,3.6-2.4h9.18c4.44,0,7.31-2.64,7.31-6.73s-2.87-6.73-7.31-6.73h-19.45v36.22c0,2.07-1.72,3.75-3.82,3.75s-3.83-1.68-3.83-3.75v-39.83c0-2.11,1.79-3.9,3.9-3.9h23.13c9.3,0,15.32,5.59,15.32,14.23s-6,14.15-15.29,14.16l13.18,12.51c.74.73,1.15,1.69,1.17,2.7.02,1.03-.36,1.99-1.09,2.71-.74.78-1.74,1.18-2.74,1.18ZM597.49,132.14c-1.2,0-2.25.7-2.67,1.77-.45,1.13-.11,2.39.92,3.36h0s19.52,18.65,19.52,18.65c1.09,1.03,2.88.97,3.92-.13.54-.54.82-1.24.8-1.99-.02-.75-.32-1.46-.87-2.01l-15-14.23h2.48c8.7,0,14.32-5.17,14.32-13.16s-5.62-13.23-14.32-13.23h-23.13c-1.57,0-2.9,1.33-2.9,2.9v39.83c0,1.52,1.27,2.75,2.83,2.75s2.82-1.24,2.82-2.75v-37.22h20.45c4.97,0,8.31,3.11,8.31,7.73s-3.34,7.73-8.31,7.73h-9.18Z"/>
    </g>
    <g>
      <path d="M646.56,156.65c-11.42,0-20.17-8.75-20.17-20.17v-5.64c0-11.42,8.75-20.17,20.17-20.17h9.11c11.42,0,20.17,8.75,20.17,20.17v5.64c0,11.42-8.75,20.17-20.17,20.17h-9.11ZM669.19,130.84c0-7.88-5.78-13.66-13.52-13.66h-9.11c-7.73,0-13.52,5.78-13.52,13.66v5.64c0,7.88,5.78,13.66,13.52,13.66h9.11c7.73,0,13.52-5.78,13.52-13.66v-5.64Z"/>
      <path d="M655.67,157.15h-9.11c-11.78,0-20.67-8.88-20.67-20.67v-5.64c0-11.78,8.88-20.67,20.67-20.67h9.11c11.78,0,20.67,8.88,20.67,20.67v5.64c0,11.78-8.88,20.67-20.67,20.67ZM646.56,111.17c-11.21,0-19.67,8.45-19.67,19.67v5.64c0,11.21,8.45,19.67,19.67,19.67h9.11c11.21,0,19.67-8.45,19.67-19.67v-5.64c0-11.21-8.45-19.67-19.67-19.67h-9.11ZM655.67,150.64h-9.11c-7.99,0-14.02-6.09-14.02-14.16v-5.64c0-8.07,6.03-14.16,14.02-14.16h9.11c7.99,0,14.02,6.09,14.02,14.16v5.64c0,8.07-6.03,14.16-14.02,14.16ZM646.56,117.68c-7.54,0-13.02,5.54-13.02,13.16v5.64c0,7.63,5.47,13.16,13.02,13.16h9.11c7.54,0,13.02-5.54,13.02-13.16v-5.64c0-7.63-5.47-13.16-13.02-13.16h-9.11Z"/>
    </g>
    <g>
      <path d="M701.49,156.65c-11.42,0-20.17-8.75-20.17-20.17v-5.64c0-11.42,8.75-20.17,20.17-20.17h20.53c1.74,0,3.18,1.45,3.18,3.18s-1.45,3.32-3.18,3.32h-20.53c-7.73,0-13.52,5.78-13.52,13.66v5.64c0,7.88,5.78,13.66,13.52,13.66h17.06v-13.23h-13.44c-1.81,0-3.25-1.45-3.25-3.25s1.45-3.25,3.25-3.25h16.55c1.88,0,3.4,1.52,3.4,3.4v19.59c0,1.81-1.45,3.25-3.25,3.25h-20.31Z"/>
      <path d="M721.8,157.15h-20.31c-11.78,0-20.67-8.88-20.67-20.67v-5.64c0-11.78,8.88-20.67,20.67-20.67h20.53c2,0,3.68,1.69,3.68,3.68s-1.72,3.82-3.68,3.82h-20.53c-7.54,0-13.02,5.54-13.02,13.16v5.64c0,7.63,5.47,13.16,13.02,13.16h16.56v-12.23h-12.94c-2.07,0-3.75-1.68-3.75-3.75s1.68-3.75,3.75-3.75h16.55c2.15,0,3.9,1.75,3.9,3.9v19.59c0,2.07-1.68,3.75-3.75,3.75ZM701.49,111.17c-11.21,0-19.67,8.45-19.67,19.67v5.64c0,11.21,8.45,19.67,19.67,19.67h20.31c1.54,0,2.75-1.21,2.75-2.75v-19.59c0-1.6-1.3-2.9-2.9-2.9h-16.55c-1.54,0-2.75,1.21-2.75,2.75s1.21,2.75,2.75,2.75h13.94v14.23h-17.56c-7.99,0-14.02-6.09-14.02-14.16v-5.64c0-8.07,6.03-14.16,14.02-14.16h20.53c1.43,0,2.68-1.32,2.68-2.82s-1.23-2.68-2.68-2.68h-20.53Z"/>
    </g>
    <g>
      <path d="M748.32,137.64c-2.6-2.46-.87-6,2.1-6h9.18c4.84,0,7.81-2.96,7.81-7.23s-2.96-7.23-7.81-7.23h-19.95v36.72c0,1.81-1.52,3.25-3.32,3.25s-3.33-1.45-3.33-3.25v-39.83c0-1.81,1.52-3.4,3.4-3.4h23.13c9.18,0,14.82,5.64,14.82,13.73s-5.64,13.66-14.82,13.66h-1.23l14.09,13.37c1.3,1.3,1.37,3.4.07,4.7-1.23,1.3-3.32,1.37-4.63.14l-19.52-18.65Z"/>
      <path d="M770.08,157.67c-.93,0-1.86-.34-2.58-1.02l-19.52-18.65c-1.34-1.26-1.77-2.93-1.16-4.46.58-1.46,2-2.4,3.6-2.4h9.18c4.44,0,7.31-2.64,7.31-6.73s-2.87-6.73-7.31-6.73h-19.45v36.22c0,2.07-1.72,3.75-3.82,3.75s-3.83-1.68-3.83-3.75v-39.83c0-2.11,1.79-3.9,3.9-3.9h23.13c9.3,0,15.32,5.59,15.32,14.23s-6,14.15-15.29,14.16l13.18,12.51c.74.73,1.15,1.69,1.17,2.7.02,1.03-.36,1.99-1.09,2.71-.74.78-1.74,1.18-2.74,1.18ZM750.42,132.14c-1.2,0-2.25.7-2.67,1.77-.45,1.13-.11,2.39.92,3.36h0s19.52,18.65,19.52,18.65c1.09,1.03,2.88.97,3.92-.13.54-.54.82-1.24.8-1.99-.02-.75-.32-1.46-.87-2.01l-15-14.23h2.48c8.7,0,14.32-5.17,14.32-13.16s-5.62-13.23-14.32-13.23h-23.13c-1.57,0-2.9,1.33-2.9,2.9v39.83c0,1.52,1.27,2.75,2.83,2.75s2.82-1.24,2.82-2.75v-37.22h20.45c4.97,0,8.31,3.11,8.31,7.73s-3.34,7.73-8.31,7.73h-9.18Z"/>
    </g>
    <g>
      <path d="M815.4,138.79h-21.39c-1.74,0-3.18-1.45-3.18-3.18s1.45-3.18,3.18-3.18h21.39v-4.19c0-6.51-4.99-11.2-10.99-11.2h-5.78c-6,0-10.99,4.7-10.99,11.2v25.66c0,1.81-1.52,3.33-3.32,3.33s-3.33-1.52-3.33-3.33v-25.59c0-10.12,7.81-17.64,17.64-17.64h5.78c9.83,0,17.64,7.52,17.64,17.64v25.59c0,1.81-1.52,3.33-3.33,3.33s-3.33-1.52-3.33-3.33v-15.11Z"/>
      <path d="M818.72,157.72c-2.07,0-3.83-1.75-3.83-3.83v-14.61h-20.89c-2,0-3.68-1.69-3.68-3.68s1.69-3.68,3.68-3.68h20.89v-3.69c0-6-4.61-10.7-10.49-10.7h-5.78c-5.88,0-10.49,4.7-10.49,10.7v25.66c0,2.07-1.75,3.83-3.82,3.83s-3.83-1.75-3.83-3.83v-25.59c0-10.17,7.97-18.14,18.14-18.14h5.78c10.17,0,18.14,7.97,18.14,18.14v25.59c0,2.07-1.75,3.83-3.83,3.83ZM794,132.93c-1.45,0-2.68,1.23-2.68,2.68s1.23,2.68,2.68,2.68h21.89v15.61c0,1.53,1.29,2.83,2.83,2.83s2.83-1.29,2.83-2.83v-25.59c0-9.77-7.37-17.14-17.14-17.14h-5.78c-9.77,0-17.14,7.37-17.14,17.14v25.59c0,1.53,1.29,2.83,2.83,2.83s2.82-1.29,2.82-2.83v-25.66c0-6.56,5.05-11.7,11.49-11.7h5.78c6.44,0,11.49,5.14,11.49,11.7v4.69h-21.89Z"/>
    </g>
    <g>
      <path d="M884.93,122.02c0-3.18-2.6-5.78-5.78-5.78s-5.78,2.6-5.78,5.78v23.13c0,6.87-5.57,12.43-12.43,12.43s-12.43-5.57-12.43-12.43v-23.13c0-3.18-2.6-5.78-5.78-5.78s-5.78,2.6-5.78,5.78v31.88c0,1.81-1.52,3.33-3.32,3.33s-3.33-1.52-3.33-3.33v-31.73c0-6.87,5.57-12.43,12.43-12.43s12.43,5.57,12.43,12.43v23.13c0,3.18,2.6,5.78,5.78,5.78s5.78-2.6,5.78-5.78v-23.13c0-6.87,5.57-12.43,12.43-12.43s12.43,5.57,12.43,12.43v31.73c0,1.81-1.52,3.33-3.33,3.33s-3.32-1.52-3.32-3.33v-31.88Z"/>
      <path d="M860.93,158.08c-7.13,0-12.93-5.8-12.93-12.93v-23.13c0-2.91-2.37-5.28-5.28-5.28s-5.28,2.37-5.28,5.28v31.88c0,2.07-1.75,3.83-3.82,3.83s-3.83-1.75-3.83-3.83v-31.73c0-7.13,5.8-12.93,12.93-12.93s12.93,5.8,12.93,12.93v23.13c0,2.91,2.37,5.28,5.28,5.28s5.28-2.37,5.28-5.28v-23.13c0-7.13,5.8-12.93,12.93-12.93s12.93,5.8,12.93,12.93v31.73c0,2.07-1.75,3.83-3.83,3.83s-3.82-1.75-3.82-3.83v-31.88c0-2.91-2.37-5.28-5.28-5.28s-5.28,2.37-5.28,5.28v23.13c0,7.13-5.8,12.93-12.93,12.93ZM842.72,115.74c3.46,0,6.28,2.82,6.28,6.28v23.13c0,6.58,5.35,11.93,11.93,11.93s11.93-5.35,11.93-11.93v-23.13c0-3.46,2.82-6.28,6.28-6.28s6.28,2.82,6.28,6.28v31.88c0,1.53,1.29,2.83,2.82,2.83s2.83-1.29,2.83-2.83v-31.73c0-6.58-5.35-11.93-11.93-11.93s-11.93,5.35-11.93,11.93v23.13c0,3.46-2.82,6.28-6.28,6.28s-6.28-2.82-6.28-6.28v-23.13c0-6.58-5.35-11.93-11.93-11.93s-11.93,5.35-11.93,11.93v31.73c0,1.53,1.29,2.83,2.83,2.83s2.82-1.29,2.82-2.83v-31.88c0-3.46,2.82-6.28,6.28-6.28Z"/>
    </g>
  </g>
</svg>
